<?xml version="1.0" encoding="UTF-8" standalone="no"?><!-- Created with Inkscape (http://www.inkscape.org/) -->

<svg height="512" id="svg1" version="1.1" viewBox="0 0 512 512" width="512" xmlns="http://www.w3.org/2000/svg" xml:space="preserve"><defs
     id="defs1" />
    <g id="layer1"><path
       style="fill:#ffffff;stroke-width:0.240909"
       d="m 265.63636,307.19319 q 10.6,-5.0591 21.32046,-7.58864 Q 297.67727,297.075 309,297.075 q 8.67273,0 16.98409,1.44546 8.31136,1.44545 16.74318,4.33636 v -95.4 q -7.95,-3.37273 -16.50227,-5.05909 -8.55227,-1.68636 -17.225,-1.68636 -11.32273,0 -22.40455,2.89091 -11.08181,2.89091 -20.95909,8.67272 z M 256,330.56137 q -3.37273,0 -6.38409,-0.84319 -3.01136,-0.84318 -5.66136,-2.28863 -9.39546,-5.54091 -19.75455,-8.31136 -10.35909,-2.77046 -21.2,-2.77046 -10.11818,0 -19.875,2.64999 -9.75682,2.65 -18.67045,7.46819 -5.0591,2.64999 -9.75682,-0.24091 Q 150,323.33409 150,317.79319 V 201.675 q 0,-2.65 1.325,-5.0591 1.325,-2.40909 3.975,-3.61363 11.32273,-5.54091 23.24773,-8.55228 11.925,-3.01136 24.45227,-3.01136 13.97273,0 27.34318,3.61364 13.37046,3.61363 25.65682,10.84092 12.28636,-7.22729 25.65682,-10.84092 13.37045,-3.61364 27.34318,-3.61364 12.52727,0 24.45227,3.01136 11.925,3.01137 23.24773,8.55228 2.65,1.20454 3.975,3.61363 1.325,2.40909 1.325,5.0591 v 116.11818 q 0,5.54091 -4.69773,8.43181 -4.69772,2.89091 -9.75682,0.24091 -8.91363,-4.81818 -18.67045,-7.46818 -9.75682,-2.65 -19.875,-2.65 -10.84091,0 -21.2,2.77046 -10.35909,2.77045 -19.75455,8.31136 -2.65,1.44545 -5.66136,2.28864 -3.01136,0.84318 -6.38409,0.84319 z m 19.27273,-103.10909 q 0,-2.16819 1.56591,-4.45682 1.56591,-2.28864 3.49318,-3.01137 6.98636,-2.40909 13.97273,-3.61363 6.98636,-1.20455 14.69545,-1.20455 4.81818,0 9.51591,0.60228 4.69773,0.60227 9.275,1.5659 2.16818,0.48182 3.73409,2.4091 1.56591,1.92727 1.56591,4.33636 0,4.09545 -2.65,6.02273 -2.65,1.92727 -6.74546,0.96363 -3.37272,-0.72272 -7.10681,-1.08409 -3.73409,-0.36136 -7.58864,-0.36136 -6.26364,0 -12.28636,1.20454 -6.02273,1.20455 -11.56364,3.13182 -4.33636,1.68637 -7.10682,-0.24091 -2.77045,-1.92727 -2.77045,-6.26363 z m 0,53 q 0,-2.16819 1.56591,-4.45682 1.56591,-2.28864 3.49318,-3.01137 6.98636,-2.40909 13.97273,-3.61363 6.98636,-1.20455 14.69545,-1.20455 4.81818,0 9.51591,0.60228 4.69773,0.60227 9.275,1.5659 2.16818,0.48182 3.73409,2.4091 1.56591,1.92727 1.56591,4.33636 0,4.09545 -2.65,6.02273 -2.65,1.92727 -6.74546,0.96363 -3.37272,-0.72272 -7.10681,-1.08409 -3.73409,-0.36136 -7.58864,-0.36136 -6.26364,0 -12.28636,1.08409 -6.02273,1.08409 -11.56364,3.01136 -4.33636,1.68637 -7.10682,-0.12045 -2.77045,-1.80682 -2.77045,-6.14318 z m 0,-26.5 q 0,-2.16819 1.56591,-4.45682 1.56591,-2.28864 3.49318,-3.01137 6.98636,-2.40909 13.97273,-3.61363 6.98636,-1.20455 14.69545,-1.20455 4.81818,0 9.51591,0.60228 4.69773,0.60227 9.275,1.5659 2.16818,0.48182 3.73409,2.4091 1.56591,1.92727 1.56591,4.33636 0,4.09545 -2.65,6.02273 -2.65,1.92727 -6.74546,0.96363 -3.37272,-0.72272 -7.10681,-1.08409 -3.73409,-0.36136 -7.58864,-0.36136 -6.26364,0 -12.28636,1.20454 -6.02273,1.20455 -11.56364,3.13182 -4.33636,1.68637 -7.10682,-0.24091 -2.77045,-1.92727 -2.77045,-6.26363 z"
       id="path1" /></g></svg>
