<?xml version="1.0" encoding="UTF-8" standalone="no"?>
<!-- Created with Inkscape (http://www.inkscape.org/) -->

<svg
   width="512"
   height="512"
   viewBox="0 0 512 512"
   version="1.1"
   id="svg1"
   xml:space="preserve"
   xmlns="http://www.w3.org/2000/svg"
   xmlns:svg="http://www.w3.org/2000/svg"><defs
     id="defs1" /><rect
     style="fill:#106d1f"
     id="rect1"
     width="512"
     height="512"
     x="0"
     y="0" /><path
     d="m 170.66667,277.33333 q -4.53334,0 -7.6,-3.06667 -3.06667,-3.06667 -3.06667,-7.6 0,-4.53333 3.06667,-7.6 3.06666,-3.06667 7.6,-3.06667 H 224 q 4.53333,0 7.6,3.06667 3.06667,3.06667 3.06667,7.6 0,4.53333 -3.06667,7.6 -3.06667,3.06667 -7.6,3.06667 z m 0,-42.66667 q -4.53334,0 -7.6,-3.06667 -3.06667,-3.06666 -3.06667,-7.6 0,-4.53333 3.06667,-7.6 3.06666,-3.06666 7.6,-3.06666 h 96 q 4.53333,0 7.6,3.06666 3.06667,3.06667 3.06667,7.6 0,4.53334 -3.06667,7.6 -3.06667,3.06667 -7.6,3.06667 z m 0,-42.66667 q -4.53334,0 -7.6,-3.06666 -3.06667,-3.06667 -3.06667,-7.6 0,-4.53334 3.06667,-7.6 3.06666,-3.06667 7.6,-3.06667 h 96 q 4.53333,0 7.6,3.06667 3.06667,3.06666 3.06667,7.6 0,4.53333 -3.06667,7.6 -3.06667,3.06666 -7.6,3.06666 z M 256,330.66666 v -17.6 q 0,-2.13333 0.8,-4.13333 0.8,-2 2.4,-3.6 l 55.73334,-55.46667 q 2.4,-2.4 5.33333,-3.46667 2.93333,-1.06666 5.86667,-1.06666 3.2,0 6.13333,1.2 2.93333,1.2 5.33333,3.6 l 9.86667,9.86666 q 2.13333,2.4 3.33333,5.33334 1.2,2.93333 1.2,5.86666 0,2.93334 -1.06666,6 -1.06667,3.06667 -3.46667,5.46667 L 292,338.13333 q -1.6,1.6 -3.6,2.4 -2,0.8 -4.13333,0.8 h -17.6 q -4.53333,0 -7.6,-3.06667 Q 256,335.19999 256,330.66666 Z m 70.13334,-49.06667 9.86666,-10.4 -9.86666,-9.86666 L 316,271.46666 Z M 272,325.33333 h 10.13334 L 314.4,292.79999 l -4.8,-5.06666 -5.06666,-4.8 L 272,315.19999 Z m 0,0 v -10.13334 l 32.53334,-32.26666 9.86666,9.86666 -32.26666,32.53334 z"
     id="path1"
     style="fill:#ffffff;stroke-width:0.266667" /></svg>
