<?xml version="1.0" encoding="UTF-8" standalone="no"?>
<!-- Created with Inkscape (http://www.inkscape.org/) -->

<svg
   height="512"
   id="svg1"
   version="1.1"
   viewBox="0 0 512 512"
   width="512"
   xml:space="preserve"
   xmlns="http://www.w3.org/2000/svg"
   xmlns:svg="http://www.w3.org/2000/svg"><defs
   id="defs1" />
    <g
   id="layer1"><path
     d="m 178.66667,286.97602 q -4.53334,0 -7.60001,-3.06667 -3.06666,-3.06666 -3.06666,-7.6 0,-4.53334 3.06666,-7.6 3.06667,-3.06667 7.60001,-3.06667 H 232 q 4.53334,0 7.6,3.06667 3.06667,3.06666 3.06667,7.6 0,4.53334 -3.06667,7.6 -3.06666,3.06667 -7.6,3.06667 z m 0,-42.66667 q -4.53334,0 -7.60001,-3.06667 -3.06666,-3.06666 -3.06666,-7.6 0,-4.53333 3.06666,-7.6 3.06667,-3.06666 7.60001,-3.06666 h 96 q 4.53333,0 7.6,3.06666 3.06666,3.06667 3.06666,7.6 0,4.53334 -3.06666,7.6 -3.06667,3.06667 -7.6,3.06667 z m 0,-42.66667 q -4.53334,0 -7.60001,-3.06666 -3.06666,-3.06667 -3.06666,-7.6 0,-4.53334 3.06666,-7.60001 3.06667,-3.06666 7.60001,-3.06666 h 96 q 4.53333,0 7.6,3.06666 3.06666,3.06667 3.06666,7.60001 0,4.53333 -3.06666,7.6 -3.06667,3.06666 -7.6,3.06666 z M 264,340.30935 v -17.6 q 0,-2.13333 0.8,-4.13334 0.8,-1.99999 2.39999,-3.6 l 55.73334,-55.46666 q 2.4,-2.4 5.33333,-3.46667 2.93333,-1.06666 5.86667,-1.06666 3.2,0 6.13334,1.2 2.93333,1.2 5.33333,3.59999 l 9.86666,9.86667 q 2.13334,2.4 3.33334,5.33334 1.2,2.93333 1.2,5.86667 0,2.93333 -1.06667,5.99999 -1.06667,3.06667 -3.46667,5.46667 L 300,347.77602 q -1.6,1.59999 -3.6,2.4 -2,0.79999 -4.13333,0.79999 h -17.6 q -4.53334,0 -7.60001,-3.06666 Q 264,344.84268 264,340.30935 Z m 80,-59.46666 -9.86667,-9.86667 z m -64,54.13332 h 10.13333 L 322.4,302.44268 317.6,297.37602 312.53333,292.57601 280,324.84268 Z m 37.6,-37.59999 -5.06667,-4.80001 9.86667,9.86667 z"
     id="path1-5"
     style="fill:#ffffff;stroke-width:0.266667" /></g></svg>
